<?xml version="1.0" encoding="UTF-8"?>
<svg id="_圖層_1" data-name=" 圖層 1" xmlns="http://www.w3.org/2000/svg" viewBox="0 0 108 20">
  <defs>
    <style>
      .cls-1 {
        fill: #fff;
      }

      .cls-2 {
        letter-spacing: -.02em;
      }

      .cls-3 {
        letter-spacing: -.05em;
      }

      .cls-4, .cls-5, .cls-6 {
        isolation: isolate;
      }

      .cls-7, .cls-5 {
        fill: #683742;
      }

      .cls-5, .cls-6 {
        font-family: NotoSansHK-Bold, 'Noto Sans HK';
        font-size: 10.08px;
        font-variation-settings: 'wght' 700;
        font-weight: 700;
      }

      .cls-6 {
        fill: #fc387a;
      }
    </style>
  </defs>
  <rect class="cls-1" x="1.51" y="1.12" width="104.98" height="17.76"/>
  <g class="cls-4">
    <text class="cls-5" transform="translate(21.64 13.45)"><tspan x="0" y="0">K</tspan></text>
    <text class="cls-5" transform="translate(28.33 13.45)"><tspan class="cls-3" x="0" y="0">a</tspan><tspan class="cls-2" x="5.5" y="0">t</tspan></text>
    <text class="cls-5" transform="translate(37.69 13.45)"><tspan x="0" y="0">e</tspan></text>
  </g>
  <g class="cls-4">
    <text class="cls-5" transform="translate(44.19 13.45)"><tspan x="0" y="0">Chou</tspan></text>
  </g>
  <g class="cls-4">
    <text class="cls-6" transform="translate(72.54 13.45)"><tspan x="0" y="0">上班囉</tspan></text>
  </g>
  <g>
    <path class="cls-7" d="M9.9,15.7c1.13.03,2.22-.14,3.25-.61,1.47-.67,2.86-2.13,2.77-4.31-.02-.38-.04-.75-.16-1.11-.16-.49-.4-.59-.82-.3-.58.39-1.2.69-1.9.81-.42.07-.83.09-1.25.02-.16-.03-.32-.09-.29-.29s.18-.2.36-.18c.98.15,1.86-.12,2.68-.65.06-.04.11-.08.17-.12.7-.42,1.26-.19,1.5.59.24.8.26,1.61.08,2.4-.31,1.41-1.11,2.49-2.35,3.24-1,.61-2.11.9-3.27.96-1.18.06-2.35.03-3.5-.29-1.58-.44-2.59-1.44-2.87-3.08-.25-1.45.5-2.73,1.74-3.35.25-.12.32-.27.31-.52-.02-.23-.08-.43-.2-.63-.28-.47-.72-.83-.89-1.37-.03-.08-.09-.05-.15-.04-.42.08-.84.15-1.26.23-.24.05-.31.17-.25.41.08.3.31.47.55.62.37.24.78.4,1.2.52.08.02.17.04.24.08.11.05.18.14.13.27-.04.12-.12.19-.25.16-.77-.19-1.49-.45-2.05-1.05-.15-.16-.25-.35-.28-.57-.08-.49.12-.8.6-.9.43-.09.86-.16,1.29-.22.19-.02.27-.1.33-.28.49-1.45,1.84-2.38,3.36-2.34,1.47.04,2.78,1.05,3.19,2.48.6,2.09-.82,4.17-2.98,4.39-.18.02-.3-.05-.31-.22-.02-.17.11-.23.26-.25.63-.06,1.19-.29,1.68-.71.97-.83,1.3-2.21.81-3.39-.49-1.18-1.7-1.94-2.97-1.84-1.32.11-2.28.95-2.66,2.18-.07.23-.02.43.11.61.18.26.38.51.57.76.29.39.45.83.39,1.32-.04.29-.17.51-.45.63-1.47.65-1.98,2.31-1.37,3.7.35.81.94,1.41,1.74,1.73.81.33,1.68.45,2.56.47h.62v.04Z"/>
    <path class="cls-7" d="M10.12,14.41c-1.07-.02-1.9-.32-2.49-1.13-.23-.32-.37-.68-.38-1.09,0-.14.06-.23.21-.24.15-.02.22.07.25.2.31,1.21,1.03,1.79,2.26,1.8.52,0,1.03-.08,1.51-.26.45-.17.79-.43.84-.97.03-.32.24-.51.54-.62.47-.17.59-.4.49-.89-.03-.15.02-.26.16-.3.15-.04.24.05.29.18.19.47-.09,1.17-.59,1.36-.3.11-.43.27-.5.59-.11.55-.52.87-1.02,1.07-.54.21-1.11.29-1.58.3h0Z"/>
    <path class="cls-7" d="M7.58,6.7c0,.33-.21.57-.48.56-.24,0-.46-.29-.45-.6s.24-.58.48-.56c.25.01.45.28.44.6h0Z"/>
  </g>
</svg>