<?xml version="1.0" encoding="UTF-8"?>
<svg id="_圖層_1" data-name=" 圖層 1" xmlns="http://www.w3.org/2000/svg" viewBox="0 0 108 20">
  <defs>
    <style>
      .cls-1 {
        fill: #fff;
      }

      .cls-2 {
        letter-spacing: -.02em;
      }

      .cls-3 {
        letter-spacing: -.05em;
      }

      .cls-4 {
        fill: #fa96b3;
      }

      .cls-5, .cls-6 {
        fill: #683742;
      }

      .cls-6 {
        font-family: NotoSansHK-Bold, 'Noto Sans HK';
        font-size: 10.08px;
        font-variation-settings: 'wght' 700;
        font-weight: 700;
        isolation: isolate;
      }
    </style>
  </defs>
  <rect class="cls-1" x="1.51" y="1.12" width="104.98" height="17.76"/>
  <g>
    <text class="cls-6" transform="translate(21.64 13.91)"><tspan x="0" y="0">K</tspan></text>
    <text class="cls-6" transform="translate(28.33 13.91)"><tspan class="cls-3" x="0" y="0">a</tspan><tspan class="cls-2" x="5.5" y="0">t</tspan></text>
    <text class="cls-6" transform="translate(37.69 13.91)"><tspan x="0" y="0">e</tspan></text>
  </g>
  <text class="cls-6" transform="translate(44.19 13.91)"><tspan x="0" y="0">Chou</tspan></text>
  <text class="cls-6" transform="translate(72.54 13.91)"><tspan x="0" y="0">下班囉</tspan></text>
  <g>
    <path class="cls-5" d="M11.25,16.24c-2.22-.07-4.04-.89-5.28-2.81-.05-.08-.1-.16-.14-.25-.05-.11-.12-.16-.25-.18-.65-.08-1.15-.56-1.26-1.2-.12-.71.2-1.39.81-1.67.12-.06.16-.12.18-.24.28-1.41,1.03-2.51,2.2-3.34.04-.02.06-.06.1-.08.26-.1.3-.25.19-.52-.12-.3.06-.65.38-.82.11-.06.13-.1.1-.22-.15-.69.28-1.19.99-1.15.42.02.78.21,1.13.43.11.07.17.08.29,0,.34-.26.77-.26,1.1,0,.11.09.18.08.29,0,.32-.2.66-.37,1.05-.42.52-.06.98.21,1.11.65.06.22-.1.44-.03.6.06.16.33.22.42.42.11.25.16.49-.04.73-.09.11,0,.15.08.2,1.06.62,1.79,1.51,2.25,2.63.11.28.19.57.25.87.03.13.05.2.19.26.58.27.88.86.81,1.55-.05.61-.45,1.16-1.02,1.26-.36.06-.49.26-.66.51-1.05,1.64-2.59,2.5-4.5,2.74-.15.02-.31.03-.47.04h-.29.02ZM17.28,10.63c-.04.17.02.32-.04.46-.04.1-.11.16-.22.15-.11-.01-.21-.05-.21-.19v-.18c-.04-1.59-.68-2.88-1.94-3.83-1.74-1.29-3.66-1.53-5.69-.83-1.43.49-2.5,1.43-3.11,2.84-.26.6-.37,1.22-.36,1.87,0,.16-.02.31-.22.31s-.23-.14-.25-.3c0-.09.04-.19-.02-.3-.22.14-.33.35-.39.58-.18.7.31,1.39.95,1.32.21-.02.3.05.38.21.21.45.49.86.83,1.22,1.01,1.08,2.27,1.64,3.73,1.79,2.36.23,4.75-1,5.65-3.02.07-.15.15-.2.31-.2.51.01.84-.2.99-.63.17-.48.04-.96-.37-1.27h-.02ZM10.44,5.42c-.09-.2-.14-.4-.12-.61,0-.05,0-.12-.04-.14-.37-.24-.75-.48-1.22-.43-.22.03-.43.27-.36.43.19.44.05.71-.35.91-.03.01-.05.05-.07.08-.07.11-.06.22,0,.32.08.12.17.02.25-.01.26-.11.53-.21.8-.3.36-.11.72-.17,1.1-.24h0ZM12.03,5.43c.73.07,1.38.27,2,.56.11.05.15.02.19-.09.08-.22-.06-.32-.21-.41-.29-.19-.36-.34-.28-.62.13-.45-.15-.74-.61-.63-.24.05-.45.17-.67.27-.19.09-.32.19-.28.45.02.14-.04.31-.13.47h-.01ZM11.71,4.91c0-.22-.23-.44-.46-.44s-.46.21-.46.46c0,.23.21.44.46.44s.47-.2.47-.46h-.01Z"/>
    <path class="cls-4" d="M10.44,5.42c-.38.07-.74.13-1.1.24-.27.09-.54.18-.8.3-.08.03-.17.13-.25.01-.06-.1-.08-.21,0-.32.02-.03.04-.06.07-.08.4-.19.54-.47.35-.91-.07-.16.14-.41.36-.43.47-.06.85.19,1.22.43.03.02.04.09.04.14-.01.21.03.41.12.61h0Z"/>
    <path class="cls-4" d="M12.03,5.43c.1-.17.16-.33.13-.47-.04-.25.09-.36.28-.45.22-.1.43-.22.67-.27.46-.11.74.18.61.63-.08.28-.01.44.28.62.15.1.29.19.21.41-.04.11-.08.14-.19.09-.62-.29-1.27-.49-2-.56h.01Z"/>
    <path class="cls-4" d="M11.71,4.91c0,.25-.21.46-.47.46-.24,0-.46-.21-.46-.44,0-.25.22-.46.46-.46s.46.23.46.44h.01Z"/>
    <path class="cls-5" d="M11.38,9.08c-1.29-.01-2.1-1.21-1.62-2.38.07-.16.15-.32.36-.23.2.08.14.24.08.4-.21.56-.11,1.06.28,1.41.38.35.97.44,1.4.23.48-.24.67-.81.38-1.19-.18-.24-.44-.33-.74-.28-.28.05-.41.23-.44.5-.02.16-.12.24-.27.21-.14-.02-.2-.14-.2-.29.03-.64.74-1.08,1.41-.86.43.14.74.43.81.89.09.52-.11.95-.52,1.28-.27.22-.59.31-.94.31h.01Z"/>
    <path class="cls-5" d="M11.25,14.22c-.52-.01-.97-.13-1.34-.5-.12-.12-.21-.26-.07-.41.15-.16.27-.05.4.06.53.51,1.49.5,2.03-.01.12-.11.24-.19.38-.05.13.13.07.26-.05.38-.37.39-.84.52-1.34.53h0Z"/>
    <path class="cls-5" d="M8.47,11.04c0-.33.2-.58.47-.58s.47.27.46.59c0,.33-.21.57-.48.57s-.46-.25-.45-.58Z"/>
    <path class="cls-5" d="M14.02,11.05c0,.34-.2.58-.47.58s-.47-.27-.47-.59.22-.58.47-.58.46.26.46.59h.01Z"/>
  </g>
</svg>